<?xml version="1.0" standalone="no"?><!DOCTYPE svg PUBLIC "-//W3C//DTD SVG 1.1//EN" "http://www.w3.org/Graphics/SVG/1.1/DTD/svg11.dtd"><svg t="1558616611829" class="icon" style="" viewBox="0 0 1024 1024" version="1.1" xmlns="http://www.w3.org/2000/svg" p-id="2227" xmlns:xlink="http://www.w3.org/1999/xlink" width="200" height="200"><defs><style type="text/css"></style></defs><path d="M102.4 51.2a51.2 51.2 0 0 0-51.2 51.2v762.311111a51.2 51.2 0 0 0 51.2 51.2h819.2a51.2 51.2 0 0 0 51.2-51.2V102.4a51.2 51.2 0 0 0-51.2-51.2H102.4z m0-51.2h819.2A102.4 102.4 0 0 1 1024 102.4v762.311111a102.4 102.4 0 0 1-102.4 102.4H102.4A102.4 102.4 0 0 1 0 864.711111V102.4A102.4 102.4 0 0 1 102.4 0z" p-id="2228"></path><path d="M800.028444 379.050667a105.813333 105.813333 0 1 0 0-211.569778 105.813333 105.813333 0 0 0 0 211.569778z m0-165.091556a59.392 59.392 0 1 1-59.278222 59.335111c0-32.711111 26.567111-59.335111 59.278222-59.335111zM51.2 728.291556v193.649777h921.6v-73.841777l-131.015111-158.151112-150.641778 139.491556a75.093333 75.093333 0 0 1-110.023111-8.248889l-276.195556-341.333333L51.2 728.291556zM910.222222 973.141333H113.777778a113.777778 113.777778 0 0 1-113.777778-113.777777v-152.576L309.361778 403.911111l311.580444 385.137778c9.216 11.377778 24.917333 12.515556 35.498667 2.787555l190.293333-176.241777 171.235556 206.734222c1.706667 2.104889 3.925333 3.413333 6.030222 4.778667v32.256a113.777778 113.777778 0 0 1-113.777778 113.777777z" p-id="2229"></path></svg>