<?xml version="1.0" standalone="no"?><!DOCTYPE svg PUBLIC "-//W3C//DTD SVG 1.1//EN" "http://www.w3.org/Graphics/SVG/1.1/DTD/svg11.dtd"><svg t="1558074014401" class="icon" style="" viewBox="0 0 1024 1024" version="1.1" xmlns="http://www.w3.org/2000/svg" p-id="2056" xmlns:xlink="http://www.w3.org/1999/xlink" width="200" height="200"><defs><style type="text/css"></style></defs><path d="M510.955204 62.22418" p-id="2057"></path><path d="M253.232468 344.188017 112.255667 344.188017c-23.393803 0-46.994314 23.214724-46.994314 46.994314l0 516.932336 233.851049 0 1.118474-516.932336C300.230875 367.411951 276.447193 344.188017 253.232468 344.188017zM206.243271 861.120352l-46.994314 0 0-93.987604 46.994314 0L206.243271 861.120352zM206.243271 720.138434l-46.994314 0 0-93.987604 46.994314 0L206.243271 720.138434zM206.243271 532.163225l-46.994314 0 0-93.987604 46.994314 0L206.243271 532.163225zM441.21177 485.168911l-46.994314 0c-23.454178 0-46.994314 23.318078-46.994314 46.994314l0 375.950418 140.976802 0L488.199944 532.163225C488.200968 508.365216 464.629109 485.168911 441.21177 485.168911zM441.21177 861.120352l-46.994314 0 0-93.987604 46.994314 0L441.21177 861.120352zM441.21177 720.138434l-46.994314 0 0-93.987604 46.994314 0L441.21177 720.138434zM911.150816 297.193703l0-46.994314c0-23.858384-23.421432-46.994314-46.994314-46.994314l-93.987604 0L770.168897 109.218494c0-17.923208-6.884804-46.994314-24.615631-46.994314-17.613146 0-22.382776 29.113061-22.382776 46.994314l0 93.987604-93.983511 0c-23.553439 0-46.994314 22.886243-46.994314 46.994314l0 46.994314c-23.37436 0-49.235354 21.081131-49.235354 45.057195l0 565.834092 0 0.028653 425.181679 0 0-0.028653L958.13899 342.251921C958.140013 318.448796 934.379866 297.193703 911.150816 297.193703zM723.17049 861.120352l-93.983511 0 0-93.987604 93.983511 0L723.17049 861.120352zM723.17049 673.145144l-93.983511 0 0-93.987604 93.983511 0L723.17049 673.145144zM723.17049 485.168911l-93.983511 0 0-93.987604 93.983511 0L723.17049 485.168911zM864.157525 861.120352l-93.987604 0 0-93.987604 93.987604 0L864.157525 861.120352zM864.157525 673.145144l-93.987604 0 0-93.987604 93.987604 0L864.157525 673.145144zM864.157525 485.168911l-93.987604 0 0-93.987604 93.987604 0L864.157525 485.168911z" p-id="2058"></path></svg>