<?xml version="1.0" standalone="no"?><!DOCTYPE svg PUBLIC "-//W3C//DTD SVG 1.1//EN" "http://www.w3.org/Graphics/SVG/1.1/DTD/svg11.dtd"><svg t="1547707950854" class="icon" style="" viewBox="0 0 1024 1024" version="1.1" xmlns="http://www.w3.org/2000/svg" p-id="5844" xmlns:xlink="http://www.w3.org/1999/xlink" width="200" height="200"><defs><style type="text/css"></style></defs><path d="M973.179 921.139h-29.127v-770.917c0-58.817-43.555-106.683-97.090-106.683h-266.998c-53.536 0-97.090 47.866-97.090 106.683v141.578c-7.595-1.963-16.317-3.097-25.302-3.114l-265.969 0.006c-53.536 0-97.090 39.244-97.090 87.517v544.929h-41.264c-16.087 0-29.127 13.040-29.127 29.127s13.040 29.127 29.127 29.127h919.931c16.087 0 29.127-13.040 29.127-29.127s-13.040-29.127-29.127-29.127zM172.183 376.21c0-2.854 6.815-9.845 19.419-9.845h266.998c12.602 0 19.419 6.971 19.419 9.845v544.929h-305.835v-544.929zM560.545 150.222c0-17.107 10.234-29.011 19.419-29.011h266.998c9.185 0 19.419 11.903 19.419 29.011v770.917h-305.835v-770.917z" p-id="5845"></path><path d="M666.277 154.047h-48.021c-15.515 0-28.118 12.582-28.118 28.118v48.021c0 15.515 12.582 28.118 28.118 28.118h48.021c15.515 0 28.118-12.582 28.118-28.118v-48.021c0-15.534-12.602-28.118-28.118-28.118zM666.277 289.974h-48.021c-15.515 0-28.118 12.582-28.118 28.118v48.021c0 15.515 12.582 28.118 28.118 28.118h48.021c15.515 0 28.118-12.582 28.118-28.118v-48.021c0-15.534-12.602-28.118-28.118-28.118zM666.277 425.9h-48.021c-15.515 0-28.118 12.582-28.118 28.118v48.021c0 15.515 12.582 28.118 28.118 28.118h48.021c15.515 0 28.118-12.582 28.118-28.118v-48.021c0-15.534-12.602-28.118-28.118-28.118zM808.67 154.047h-48.021c-15.515 0-28.118 12.582-28.118 28.118v48.021c0 15.515 12.582 28.118 28.118 28.118h48.021c15.515 0 28.118-12.582 28.118-28.118v-48.021c0-15.534-12.582-28.118-28.118-28.118zM808.67 289.974h-48.021c-15.515 0-28.118 12.582-28.118 28.118v48.021c0 15.515 12.582 28.118 28.118 28.118h48.021c15.515 0 28.118-12.582 28.118-28.118v-48.021c0-15.534-12.582-28.118-28.118-28.118zM808.67 425.9h-48.021c-15.515 0-28.118 12.582-28.118 28.118v48.021c0 15.515 12.582 28.118 28.118 28.118h48.021c15.515 0 28.118-12.582 28.118-28.118v-48.021c0-15.534-12.582-28.118-28.118-28.118zM666.277 561.827h-48.021c-15.515 0-28.118 12.582-28.118 28.118v48.021c0 15.515 12.582 28.118 28.118 28.118h48.021c15.515 0 28.118-12.582 28.118-28.118v-48.021c0-15.534-12.602-28.118-28.118-28.118zM666.277 697.754h-48.021c-15.515 0-28.118 12.582-28.118 28.118v48.021c0 15.515 12.582 28.118 28.118 28.118h48.021c15.515 0 28.118-12.582 28.118-28.118v-48.021c0-15.534-12.602-28.118-28.118-28.118zM808.67 561.827h-48.021c-15.515 0-28.118 12.582-28.118 28.118v48.021c0 15.515 12.582 28.118 28.118 28.118h48.021c15.515 0 28.118-12.582 28.118-28.118v-48.021c0-15.534-12.582-28.118-28.118-28.118zM808.67 697.754h-48.021c-15.515 0-28.118 12.582-28.118 28.118v48.021c0 15.515 12.582 28.118 28.118 28.118h48.021c15.515 0 28.118-12.582 28.118-28.118v-48.021c0-15.534-12.582-28.118-28.118-28.118zM277.915 425.9h-48.021c-15.515 0-28.118 12.582-28.118 28.118v48.021c0 15.515 12.582 28.118 28.118 28.118h48.021c15.515 0 28.118-12.582 28.118-28.118v-48.021c0-15.534-12.602-28.118-28.118-28.118zM420.307 425.9h-48.021c-15.515 0-28.118 12.582-28.118 28.118v48.021c0 15.515 12.582 28.118 28.118 28.118h48.021c15.515 0 28.118-12.582 28.118-28.118v-48.021c0-15.534-12.582-28.118-28.118-28.118zM277.915 561.827h-48.021c-15.515 0-28.118 12.582-28.118 28.118v48.021c0 15.515 12.582 28.118 28.118 28.118h48.021c15.515 0 28.118-12.582 28.118-28.118v-48.021c0-15.534-12.602-28.118-28.118-28.118zM277.915 697.754h-48.021c-15.515 0-28.118 12.582-28.118 28.118v48.021c0 15.515 12.582 28.118 28.118 28.118h48.021c15.515 0 28.118-12.582 28.118-28.118v-48.021c0-15.534-12.602-28.118-28.118-28.118zM420.307 561.827h-48.021c-15.515 0-28.118 12.582-28.118 28.118v48.021c0 15.515 12.582 28.118 28.118 28.118h48.021c15.515 0 28.118-12.582 28.118-28.118v-48.021c0-15.534-12.582-28.118-28.118-28.118zM420.307 697.754h-48.021c-15.515 0-28.118 12.582-28.118 28.118v48.021c0 15.515 12.582 28.118 28.118 28.118h48.021c15.515 0 28.118-12.582 28.118-28.118v-48.021c0-15.534-12.582-28.118-28.118-28.118z" p-id="5846"></path></svg>