<svg class="icon" viewBox="0 0 1024 1024" xmlns="http://www.w3.org/2000/svg" width="200" height="200"><defs><style/></defs><path d="M428.65 693.502c-2.507 0-5.034-.556-7.371-1.716a16.726 16.726 0 0 1-9.366-15.02V326.954c0-6.389 3.637-12.208 9.366-15.019 5.728-2.843 12.568-2.108 17.618 1.782l225.922 174.9c4.094 3.17 6.487 8.056 6.487 13.237s-2.394 10.067-6.487 13.237L438.897 690.005a16.798 16.798 0 0 1-10.246 3.497zm17.033-332.425v281.567l181.852-140.791-181.852-140.776zM913.334 168.454h33.769v686.638h-33.77V168.454zM830.446 168.454h32.746v686.638h-32.746V168.454zM161.203 168.454h32.746v686.638h-32.746V168.454z"/><path d="M863.192 821.323H161.203v-619.1h701.989v619.1zm-669.243-33.77h636.497V235.993H193.949v551.562z"/><path d="M846.819 202.223h83.91v33.769h-83.91v-33.77zM846.819 286.134h83.91v32.746h-83.91v-32.746zM846.819 369.022h83.91v33.769h-83.91v-33.77zM846.819 452.933h83.91v33.769h-83.91v-33.77zM846.819 536.844h83.91v33.769h-83.91v-33.77zM846.819 620.755h83.91v33.769h-83.91v-33.77zM846.819 704.666h83.91v32.746h-83.91v-32.746zM846.819 787.554h83.91v33.769h-83.91v-33.77zM77.292 168.454h33.77v686.638h-33.77V168.454z"/><path d="M93.665 202.223h83.911v33.769h-83.91v-33.77zM93.665 286.134h83.911v32.746h-83.91v-32.746zM93.665 369.022h83.911v33.769h-83.91v-33.77zM93.665 452.933h83.911v33.769h-83.91v-33.77zM93.665 536.844h83.911v33.769h-83.91v-33.77zM93.665 620.755h83.911v33.769h-83.91v-33.77zM93.665 704.666h83.911v32.746h-83.91v-32.746zM93.665 787.554h83.911v33.769h-83.91v-33.77z"/></svg>