<?xml version="1.0" standalone="no"?><!DOCTYPE svg PUBLIC "-//W3C//DTD SVG 1.1//EN" "http://www.w3.org/Graphics/SVG/1.1/DTD/svg11.dtd"><svg t="1547707563287" class="icon" style="" viewBox="0 0 1024 1024" version="1.1" xmlns="http://www.w3.org/2000/svg" p-id="1983" xmlns:xlink="http://www.w3.org/1999/xlink" width="200" height="200"><defs><style type="text/css"></style></defs><path d="M172.032 704.512c-40.96 0-73.728 32.768-73.728 73.728s32.768 73.728 73.728 73.728S249.856 819.2 249.856 778.24 212.992 704.512 172.032 704.512zM172.032 815.104c-20.48 0-36.864-16.384-36.864-36.864s16.384-36.864 36.864-36.864 36.864 16.384 36.864 36.864S192.512 815.104 172.032 815.104zM172.032 176.128c-40.96 0-73.728 32.768-73.728 73.728S131.072 327.68 172.032 327.68s73.728-32.768 73.728-73.728S212.992 176.128 172.032 176.128zM172.032 286.72C151.552 286.72 135.168 270.336 135.168 249.856c0-20.48 16.384-36.864 36.864-36.864s36.864 16.384 36.864 36.864C208.896 270.336 192.512 286.72 172.032 286.72zM851.968 438.272l-450.56 0c-40.96 0-73.728 32.768-73.728 73.728 0 40.96 32.768 73.728 73.728 73.728l450.56 0c40.96 0 73.728-32.768 73.728-73.728C925.696 471.04 892.928 438.272 851.968 438.272zM851.968 552.96l-450.56 0c-20.48 0-36.864-16.384-36.864-36.864 0-20.48 16.384-36.864 36.864-36.864l450.56 0c20.48 0 36.864 16.384 36.864 36.864C888.832 536.576 872.448 552.96 851.968 552.96zM851.968 704.512l-450.56 0c-40.96 0-73.728 32.768-73.728 73.728s32.768 73.728 73.728 73.728l450.56 0c40.96 0 73.728-32.768 73.728-73.728S892.928 704.512 851.968 704.512zM851.968 815.104l-450.56 0c-20.48 0-36.864-16.384-36.864-36.864 0-20.48 16.384-36.864 36.864-36.864l450.56 0c20.48 0 36.864 16.384 36.864 36.864C888.832 798.72 872.448 815.104 851.968 815.104zM397.312 327.68l450.56 0c40.96 0 73.728-32.768 73.728-73.728s-32.768-73.728-73.728-73.728l-450.56 0c-40.96 0-73.728 32.768-73.728 73.728S356.352 327.68 397.312 327.68zM397.312 212.992l450.56 0c20.48 0 36.864 16.384 36.864 36.864 0 20.48-16.384 36.864-36.864 36.864l-450.56 0C376.832 286.72 360.448 270.336 360.448 249.856 360.448 229.376 376.832 212.992 397.312 212.992zM172.032 438.272c-40.96 0-73.728 32.768-73.728 73.728s32.768 73.728 73.728 73.728 73.728-32.768 73.728-73.728S212.992 438.272 172.032 438.272zM172.032 552.96c-20.48 0-36.864-16.384-36.864-36.864 0-20.48 16.384-36.864 36.864-36.864s36.864 16.384 36.864 36.864C208.896 536.576 192.512 552.96 172.032 552.96z" p-id="1984"></path></svg>