<?xml version="1.0" standalone="no"?><!DOCTYPE svg PUBLIC "-//W3C//DTD SVG 1.1//EN" "http://www.w3.org/Graphics/SVG/1.1/DTD/svg11.dtd"><svg t="1558616880865" class="icon" style="" viewBox="0 0 1024 1024" version="1.1" xmlns="http://www.w3.org/2000/svg" p-id="5284" xmlns:xlink="http://www.w3.org/1999/xlink" width="200" height="200"><defs><style type="text/css"></style></defs><path d="M512.406306 393.633287c-50.711335 0-91.97881-41.245512-91.97881-91.97881s41.245512-91.97881 91.97881-91.978809c50.711335 0 91.97881 41.245512 91.978809 91.978809s-41.267475 91.97881-91.978809 91.97881z m0-150.991957c-32.548375 0-59.03511 26.486735-59.03511 59.03511s26.486735 59.03511 59.03511 59.03511c32.526413 0 59.03511-26.486735 59.03511-59.03511s-26.486735-59.03511-59.03511-59.03511zM301.654477 606.12015a92.088622 92.088622 0 0 1-91.978809-91.97881 92.06666 92.06666 0 0 1 91.978809-91.978809 92.044697 92.044697 0 0 1 91.934885 91.978809 92.06666 92.06666 0 0 1-91.934885 91.97881z m0-150.991957a59.100997 59.100997 0 0 0-59.03511 59.03511 59.12296 59.12296 0 0 0 59.03511 59.03511 59.079035 59.079035 0 0 0 58.991185-59.03511 59.079035 59.079035 0 0 0-58.991185-59.03511zM512.406306 814.30237c-50.711335 0-91.97881-41.267475-91.97881-91.97881s41.245512-91.97881 91.97881-91.978809c50.711335 0 91.97881 41.267475 91.978809 91.978809s-41.267475 91.97881-91.978809 91.97881z m0-150.991957c-32.548375 0-59.03511 26.486735-59.03511 59.03511s26.486735 59.03511 59.03511 59.03511c32.526413 0 59.03511-26.486735 59.03511-59.03511s-26.486735-59.03511-59.03511-59.03511zM722.389448 601.903357a92.088622 92.088622 0 0 1-91.97881-91.97881 92.088622 92.088622 0 0 1 91.97881-91.97881 92.044697 92.044697 0 0 1 91.934884 91.97881 92.088622 92.088622 0 0 1-91.934884 91.97881z m0-150.991958a59.12296 59.12296 0 0 0-59.03511 59.03511 59.12296 59.12296 0 0 0 59.03511 59.03511 59.079035 59.079035 0 0 0 58.991185-59.03511 59.100997 59.100997 0 0 0-58.991185-59.03511z" p-id="5285"></path><path d="M964.415828 947.900054H683.449995c173.854885-68.65467 297.371796-237.941362 297.437683-435.86711 0-63.229941-12.386831-124.57111-36.853018-182.35436a468.129973 468.129973 0 0 0-100.456322-149.015335 468.327635 468.327635 0 0 0-149.015335-100.566134 466.197276 466.197276 0 0 0-182.486134-36.962831A467.097737 467.097737 0 0 0 180.202038 180.926799a467.053812 467.053812 0 0 0-100.280622 148.993373A465.60429 465.60429 0 0 0 43.112322 511.725469c-0.1757 258.498231 209.983142 468.942584 468.45941 469.096322h452.866059a16.47185 16.47185 0 1 0-0.021963-32.921737zM81.283088 511.923131c0.395324-237.282488 193.379517-430.332568 430.156869-430.332568h0.768686c237.216601 0.417287 430.200794 193.445405 430.288644 430.332568 0.043925 237.48015-193.072043 430.662005-430.618081 430.749856-114.95155-0.043925-223.182584-45.001094-304.641372-126.591657-81.392901-81.502713-126.08652-189.514123-125.954746-304.158199z" p-id="5286"></path></svg>