<?xml version="1.0" standalone="no"?><!DOCTYPE svg PUBLIC "-//W3C//DTD SVG 1.1//EN" "http://www.w3.org/Graphics/SVG/1.1/DTD/svg11.dtd"><svg t="1558074175448" class="icon" style="" viewBox="0 0 1024 1024" version="1.1" xmlns="http://www.w3.org/2000/svg" p-id="2782" xmlns:xlink="http://www.w3.org/1999/xlink" width="200" height="200"><defs><style type="text/css"></style></defs><path d="M511.195166 0.014681c279.794399-2.127714 510.651375 227.133476 512.779089 509.587518 2.127714 281.922113-225.537691 511.183304-510.119447 514.374875C233.52848 1026.636716 0.543791 797.375526 0.011862 513.325699-0.520067 228.212014 228.741124 0.54661 511.195166 0.014681zM341.509969 121.294383c-4.787357 2.659643-10.106642 5.319285-14.893998 7.446999-75.533849 32.447639-130.854415 87.768205-176.600267 155.855055 11.170499 12.234356 20.745212 24.468712 31.915711 35.639211 10.63857 10.63857 31.915711 12.766284 32.447639 35.639211-6.915071-1.595786-11.702427-2.659643-14.893998-3.7235-1.063857 20.213284-3.191571 39.36271-2.127714 57.980208 1.063857 14.893998 2.659643 31.383782 10.106642 43.08621 12.766284 19.149427 30.851854 35.107282 46.277781 52.660923 3.7235 4.255428 6.383142 10.106642 9.574713 14.893998 15.425927 27.660283 30.319925 55.852494 45.745852 83.512777 2.659643-1.063857 5.319285-2.659643 7.978928-3.7235-11.702427-23.936783-22.872926-47.341638-34.575354-71.278421 2.127714-1.063857 4.255428-2.127714 6.383142-3.191571 4.787357 8.510856 8.510856 17.553641 13.830141 25.532569 23.936783 34.043425 59.575994 60.107922 67.554921 104.789918 0.531929 2.659643 3.7235 6.383142 6.383142 7.446999 26.064497 12.766284 46.809709 39.36271 81.385063 28.72414 3.191571-1.063857 9.042785 0.531929 11.170499 2.659643 15.425927 16.489784 31.915711 29.787997 55.852494 29.787997 1.063857 0 3.191571 2.659643 3.7235 4.255428 7.978928 23.404855 27.128354 36.171139 46.277781 49.469352 4.787357 3.191571 12.234356 9.042785 14.36207 7.446999 4.787357-3.7235 6.915071-10.63857 10.63857-17.553641-33.511496-2.659643-40.958496-13.830141-31.383782-39.894639 1.063857-2.659643 0.531929-6.915071-1.063857-9.574713-4.255428-9.042785-7.446999-21.809069-14.36207-25.00064-9.574713-4.255428-22.340998-1.063857-37.766925-1.063857 4.787357-13.830141 9.042785-26.064497 12.234356-38.830782 1.595786-5.851214 0-12.234356-0.531929-18.08557-6.915071 0.531929-14.36207 0.531929-20.745212 2.659643-3.7235 1.063857-6.915071 6.915071-7.978928 10.63857-2.659643 10.63857-7.446999 18.08557-20.213284 18.08557-13.830141 0-25.532569-1.595786-34.043425-15.425927-16.489784-27.128354-3.7235-55.852494-5.851214-83.512777 0-2.127714 3.7235-5.319285 6.383142-7.446999 13.830141-10.63857 28.192211-19.681355 46.809709-12.766284 3.191571 1.063857 9.042785 0 11.702427-2.127714 19.681355-14.36207 59.044065-1.595786 67.022993 21.277141 3.191571 9.042785 9.042785 17.553641 13.830141 26.064497 3.191571-1.063857 5.851214-2.659643 9.042785-3.7235-4.787357-16.489784 6.383142-35.107282-11.702427-50.00128-2.659643-2.127714-3.191571-12.234356-0.531929-15.425927 5.319285-6.915071 13.298213-12.766284 20.745212-17.021713 20.213284-10.63857 25.00064-22.340998 20.745212-44.681995-1.063857-5.851214 2.127714-15.425927 6.915071-18.617498 13.298213-9.574713 28.192211-17.021713 42.022353-26.064497 2.659643-1.595786 3.191571-5.319285 5.319285-7.446999 5.851214-6.383142 10.63857-13.830141 17.553641-18.617498 12.234356-7.978928 25.532569-14.893998 33.511496-19.149427 0-14.36207 0-23.404855 0-36.703068-12.234356 2.659643-25.532569 4.787357-38.298853 7.446999 25.00064-16.489784 51.597066-25.532569 79.257349-14.893998 11.170499-5.851214 20.745212-11.170499 30.319925-16.489784 11.702427-5.851214 13.298213-11.702427 3.191571-22.340998-17.553641-17.553641-48.405495-20.213284-56.384423-50.00128-1.595786-6.915071-9.042785-12.234356-13.830141-19.149427-3.7235 3.191571-6.383142 5.319285-8.510856 7.446999-18.08557 15.957855-28.192211 13.830141-37.766925-7.978928-2.127714-4.787357-6.383142-10.63857-11.170499-12.234356-14.36207-5.851214-29.787997-11.170499-44.681995-15.425927-13.298213-3.7235-20.745212 1.063857-17.021713 17.021713 1.063857 5.319285-1.063857 11.170499-0.531929 17.021713 0.531929 6.383142 0.531929 15.425927 4.787357 19.149427 9.574713 9.042785 8.510856 17.021713-1.595786 22.340998-18.08557 10.106642-18.617498 22.340998-7.446999 36.703068-17.553641 13.298213-23.404855 10.63857-32.447639-9.042785-3.7235-9.042785-10.106642-18.08557-17.553641-23.936783-7.446999-5.319285-17.553641-7.446999-26.596426-10.106642-11.170499-3.7235-22.340998-8.510856-34.043425-9.574713-20.213284-2.659643-35.107282-20.213284-27.660283-38.298853 6.383142-14.893998 13.298213-31.383782 35.107282-32.979568 7.978928-0.531929 17.553641-9.042785 22.872926-16.489784 7.978928-11.702427 14.36207-19.681355 30.319925-12.234356 3.7235 2.127714 15.957855-3.7235 15.957855-4.255428-1.595786-10.63857-4.787357-20.745212-7.446999-30.851854-6.383142 2.659643-13.830141 4.255428-19.149427 8.510856-6.915071 5.319285-11.702427 13.298213-19.681355 22.872926-6.915071-16.489784-14.36207-26.064497-30.851854-24.468712C494.173453 124.485954 486.194525 117.038955 484.066811 111.71967c-5.319285-14.893998-16.489784-15.957855-28.72414-14.893998-3.7235 0-9.042785 4.255428-9.574713 7.446999-0.531929 3.191571 2.659643 8.510856 5.851214 10.63857 6.383142 4.255428 14.36207 7.446999 16.489784 8.510856-8.510856 6.383142-16.489784 12.766284-23.936783 18.617498 1.595786 0.531929-5.851214-3.191571-13.298213-4.255428-9.574713-1.063857-20.213284 1.595786-29.787997 0-5.319285-1.063857-13.830141-6.915071-13.830141-11.702427-1.595786-19.149427-11.702427-20.213284-26.064497-13.830141C354.808182 114.911241 348.42504 118.102812 341.509969 121.294383zM584.069372 933.549226c95.215204-18.08557 171.812911-59.575994 233.516618-123.407416-13.298213-10.63857-23.936783-19.681355-35.107282-27.128354-12.234356-8.510856-27.128354-23.404855-38.298853-21.809069-21.277141 3.7235-34.575354-7.978928-51.065138-13.298213-17.021713-5.851214-35.107282-11.702427-51.597066 4.255428-9.574713 9.042785-20.213284 17.021713-32.447639 26.596426 0.531929 3.7235 0.531929 11.170499 1.595786 18.08557 5.319285 24.468712 5.319285 46.809709-16.489784 65.427207-5.319285 4.787357-5.319285 16.489784-6.383142 25.00064-1.063857 7.446999 0.531929 15.425927 0 23.404855C587.260943 916.527514 585.665158 922.910656 584.069372 933.549226z" p-id="2783"></path></svg>