<svg class="icon" viewBox="0 0 1024 1024" xmlns="http://www.w3.org/2000/svg" width="200" height="200"><defs><style/></defs><path d="M973.179 921.139h-29.127V150.222c0-58.817-43.555-106.683-97.09-106.683H579.964c-53.536 0-97.09 47.866-97.09 106.683V291.8c-7.595-1.963-16.317-3.097-25.302-3.114l-265.969.006c-53.536 0-97.09 39.244-97.09 87.517v544.929H53.249c-16.087 0-29.127 13.04-29.127 29.127s13.04 29.127 29.127 29.127H973.18c16.087 0 29.127-13.04 29.127-29.127s-13.04-29.127-29.127-29.127zM172.183 376.21c0-2.854 6.815-9.845 19.419-9.845H458.6c12.602 0 19.419 6.971 19.419 9.845v544.929H172.184V376.21zm388.362-225.988c0-17.107 10.234-29.011 19.419-29.011h266.998c9.185 0 19.419 11.903 19.419 29.011v770.917H560.546V150.222z"/><path d="M666.277 154.047h-48.021c-15.515 0-28.118 12.582-28.118 28.118v48.021c0 15.515 12.582 28.118 28.118 28.118h48.021c15.515 0 28.118-12.582 28.118-28.118v-48.021c0-15.534-12.602-28.118-28.118-28.118zm0 135.927h-48.021c-15.515 0-28.118 12.582-28.118 28.118v48.021c0 15.515 12.582 28.118 28.118 28.118h48.021c15.515 0 28.118-12.582 28.118-28.118v-48.021c0-15.534-12.602-28.118-28.118-28.118zm0 135.926h-48.021c-15.515 0-28.118 12.582-28.118 28.118v48.021c0 15.515 12.582 28.118 28.118 28.118h48.021c15.515 0 28.118-12.582 28.118-28.118v-48.021c0-15.534-12.602-28.118-28.118-28.118zM808.67 154.047h-48.021c-15.515 0-28.118 12.582-28.118 28.118v48.021c0 15.515 12.582 28.118 28.118 28.118h48.021c15.515 0 28.118-12.582 28.118-28.118v-48.021c0-15.534-12.582-28.118-28.118-28.118zm0 135.927h-48.021c-15.515 0-28.118 12.582-28.118 28.118v48.021c0 15.515 12.582 28.118 28.118 28.118h48.021c15.515 0 28.118-12.582 28.118-28.118v-48.021c0-15.534-12.582-28.118-28.118-28.118zm0 135.926h-48.021c-15.515 0-28.118 12.582-28.118 28.118v48.021c0 15.515 12.582 28.118 28.118 28.118h48.021c15.515 0 28.118-12.582 28.118-28.118v-48.021c0-15.534-12.582-28.118-28.118-28.118zM666.277 561.827h-48.021c-15.515 0-28.118 12.582-28.118 28.118v48.021c0 15.515 12.582 28.118 28.118 28.118h48.021c15.515 0 28.118-12.582 28.118-28.118v-48.021c0-15.534-12.602-28.118-28.118-28.118zm0 135.927h-48.021c-15.515 0-28.118 12.582-28.118 28.118v48.021c0 15.515 12.582 28.118 28.118 28.118h48.021c15.515 0 28.118-12.582 28.118-28.118v-48.021c0-15.534-12.602-28.118-28.118-28.118zM808.67 561.827h-48.021c-15.515 0-28.118 12.582-28.118 28.118v48.021c0 15.515 12.582 28.118 28.118 28.118h48.021c15.515 0 28.118-12.582 28.118-28.118v-48.021c0-15.534-12.582-28.118-28.118-28.118zm0 135.927h-48.021c-15.515 0-28.118 12.582-28.118 28.118v48.021c0 15.515 12.582 28.118 28.118 28.118h48.021c15.515 0 28.118-12.582 28.118-28.118v-48.021c0-15.534-12.582-28.118-28.118-28.118zM277.915 425.9h-48.021c-15.515 0-28.118 12.582-28.118 28.118v48.021c0 15.515 12.582 28.118 28.118 28.118h48.021c15.515 0 28.118-12.582 28.118-28.118v-48.021c0-15.534-12.602-28.118-28.118-28.118zm142.392 0h-48.021c-15.515 0-28.118 12.582-28.118 28.118v48.021c0 15.515 12.582 28.118 28.118 28.118h48.021c15.515 0 28.118-12.582 28.118-28.118v-48.021c0-15.534-12.582-28.118-28.118-28.118zM277.915 561.827h-48.021c-15.515 0-28.118 12.582-28.118 28.118v48.021c0 15.515 12.582 28.118 28.118 28.118h48.021c15.515 0 28.118-12.582 28.118-28.118v-48.021c0-15.534-12.602-28.118-28.118-28.118zm0 135.927h-48.021c-15.515 0-28.118 12.582-28.118 28.118v48.021c0 15.515 12.582 28.118 28.118 28.118h48.021c15.515 0 28.118-12.582 28.118-28.118v-48.021c0-15.534-12.602-28.118-28.118-28.118zm142.392-135.927h-48.021c-15.515 0-28.118 12.582-28.118 28.118v48.021c0 15.515 12.582 28.118 28.118 28.118h48.021c15.515 0 28.118-12.582 28.118-28.118v-48.021c0-15.534-12.582-28.118-28.118-28.118zm0 135.927h-48.021c-15.515 0-28.118 12.582-28.118 28.118v48.021c0 15.515 12.582 28.118 28.118 28.118h48.021c15.515 0 28.118-12.582 28.118-28.118v-48.021c0-15.534-12.582-28.118-28.118-28.118z"/></svg>