<svg class="icon" viewBox="0 0 1024 1024" xmlns="http://www.w3.org/2000/svg" width="200" height="200"><defs><style/></defs><path d="M512 921.6c226.227 0 409.6-183.373 409.6-409.6S738.227 102.4 512 102.4 102.4 285.773 102.4 512 285.773 921.6 512 921.6zm0 51.2C257.51 972.8 51.2 766.49 51.2 512S257.51 51.2 512 51.2 972.8 257.51 972.8 512 766.49 972.8 512 972.8zM358.4 358.4A25.6 25.6 0 0 1 384 384v51.2a25.6 25.6 0 1 1-51.2 0V384a25.6 25.6 0 0 1 25.6-25.6zm332.8 0a25.6 25.6 0 0 1 25.6 25.6v51.2a25.6 25.6 0 1 1-51.2 0V384a25.6 25.6 0 0 1 25.6-25.6zM283.392 649.42a25.6 25.6 0 0 1 47.616-18.84 217.651 217.651 0 0 0 404.608.767 25.6 25.6 0 1 1 47.54 18.995 268.851 268.851 0 0 1-499.764-.921z"/></svg>