<svg class="icon" viewBox="0 0 1024 1024" xmlns="http://www.w3.org/2000/svg" width="200" height="200"><defs><style/></defs><path d="M32 1024c-19.2 0-32-12.8-32-32V672c0-19.2 12.8-32 32-32s32 12.8 32 32v320c0 19.2-12.8 32-32 32zM480 1024c-19.2 0-32-12.8-32-32V576c0-19.2 12.8-32 32-32s32 12.8 32 32v416c0 19.2-12.8 32-32 32zM288 1024c-19.2 0-32-12.8-32-32V576c0-19.2 12.8-32 32-32s32 12.8 32 32v416c0 19.2-12.8 32-32 32zM736 1024c-19.2 0-32-12.8-32-32V576c0-19.2 12.8-32 32-32s32 12.8 32 32v416c0 19.2-12.8 32-32 32zM928 1024c-19.2 0-32-12.8-32-32V384c0-19.2 12.8-32 32-32s32 12.8 32 32v608c0 19.2-12.8 32-32 32zM32 480c-19.2 0-32-19.2-32-32s12.8-32 32-32c364.8 0 716.8-153.6 934.4-403.2 12.8-12.8 32-12.8 44.8 0 12.8 12.8 12.8 32 0 44.8C780.8 320 416 480 32 480z"/><path d="M992 192c-19.2 0-32-12.8-32-32V64h-96c-19.2 0-32-12.8-32-32s12.8-32 32-32h128c19.2 0 32 12.8 32 32v128c0 19.2-12.8 32-32 32z"/></svg>