<svg class="icon" viewBox="0 0 1024 1024" xmlns="http://www.w3.org/2000/svg" width="200" height="200"><defs><style/></defs><path d="M1004.448 72.845c-2.176-19.584-5.235-33.536-11.11-43.917C983.763 10.88 966.906 0 947.245 0c-15.309 0-30.131 6.656-41.869 19.072-47.629 52.749-110.566 80.653-181.555 80.653-50.803 0-105.331-14.464-157.799-42.368-36.006-19.072-79.923-28.928-129.715-28.928h-2.675c-47.117.499-99.085 8.832-154.1 25.856-17.497 5.12-34.482 11.392-50.815 17.536-7.923 3.072-15.322 6.144-20.173 8.32h-.512l-3.187 2.56-68.826 41.856h-24.896L95.814 88.973 17.926 117.9l353.78 822.361H53.42v83.725h817.1v-83.725H462.228l-97.933-228.377c15.322-27.904 42.394-52.736 73.037-66.688 35.495-16 76.211-23.821 122.304-23.821 40.73 0 84.135 6.669 128.192 19.597 42.381 12.416 83.11 19.072 120.768 19.072 54.515 0 102.771-12.928 142.989-38.784 28.096-17.549 41.882-34.573 47.629-42.893l6.886-9.856V114.189c0-7.808 0-23.808-1.651-41.344zm-859.366 130.7h16.473l87.975-53.247c2.163-1.024 6.374-2.56 13.273-5.645 14.298-5.632 29.107-10.88 43.917-14.976 46.605-13.952 89.498-21.632 127.667-21.632h2.176c34.47 0 63.578 6.144 86.31 18.048 65.626 34.573 135.066 53.26 201.204 53.26 72.013 0 139.801-21.631 195.98-62.476V543.04c-5.235 4.608-11.11 9.344-17.497 13.44-25.92 16.512-57.702 24.832-94.22 24.832-28.596 0-60.391-5.12-94.222-14.976-52.467-15.488-104.307-23.296-154.61-23.296-59.367 0-113.37 10.88-160.487 32-29.107 12.928-54.515 29.965-73.024 49.037L145.082 203.546z"/></svg>