<svg class="icon" viewBox="0 0 1024 1024" xmlns="http://www.w3.org/2000/svg" width="200" height="200"><defs><style/></defs><path d="M172.032 704.512c-40.96 0-73.728 32.768-73.728 73.728s32.768 73.728 73.728 73.728 77.824-32.768 77.824-73.728-36.864-73.728-77.824-73.728zm0 110.592c-20.48 0-36.864-16.384-36.864-36.864s16.384-36.864 36.864-36.864 36.864 16.384 36.864 36.864-16.384 36.864-36.864 36.864zm0-638.976c-40.96 0-73.728 32.768-73.728 73.728s32.768 77.824 73.728 77.824 73.728-32.768 73.728-73.728-32.768-77.824-73.728-77.824zm0 110.592c-20.48 0-36.864-16.384-36.864-36.864 0-20.48 16.384-36.864 36.864-36.864s36.864 16.384 36.864 36.864c0 20.48-16.384 36.864-36.864 36.864zm679.936 151.552h-450.56c-40.96 0-73.728 32.768-73.728 73.728 0 40.96 32.768 73.728 73.728 73.728h450.56c40.96 0 73.728-32.768 73.728-73.728 0-40.96-32.768-73.728-73.728-73.728zm0 114.688h-450.56c-20.48 0-36.864-16.384-36.864-36.864 0-20.48 16.384-36.864 36.864-36.864h450.56c20.48 0 36.864 16.384 36.864 36.864 0 20.48-16.384 36.864-36.864 36.864zm0 151.552h-450.56c-40.96 0-73.728 32.768-73.728 73.728s32.768 73.728 73.728 73.728h450.56c40.96 0 73.728-32.768 73.728-73.728s-32.768-73.728-73.728-73.728zm0 110.592h-450.56c-20.48 0-36.864-16.384-36.864-36.864 0-20.48 16.384-36.864 36.864-36.864h450.56c20.48 0 36.864 16.384 36.864 36.864 0 20.48-16.384 36.864-36.864 36.864zM397.312 327.68h450.56c40.96 0 73.728-32.768 73.728-73.728s-32.768-73.728-73.728-73.728h-450.56c-40.96 0-73.728 32.768-73.728 73.728s32.768 73.728 73.728 73.728zm0-114.688h450.56c20.48 0 36.864 16.384 36.864 36.864 0 20.48-16.384 36.864-36.864 36.864h-450.56c-20.48 0-36.864-16.384-36.864-36.864 0-20.48 16.384-36.864 36.864-36.864zm-225.28 225.28c-40.96 0-73.728 32.768-73.728 73.728s32.768 73.728 73.728 73.728S245.76 552.96 245.76 512s-32.768-73.728-73.728-73.728zm0 114.688c-20.48 0-36.864-16.384-36.864-36.864 0-20.48 16.384-36.864 36.864-36.864s36.864 16.384 36.864 36.864c0 20.48-16.384 36.864-36.864 36.864z"/></svg>