<svg class="icon" viewBox="0 0 1024 1024" xmlns="http://www.w3.org/2000/svg" width="200" height="200"><defs><style/></defs><path d="M512 63.788C264.75 63.788 63.788 264.185 63.788 512c0 247.25 200.397 448.212 448.212 448.212S960.212 759.815 960.212 512C960.212 264.75 759.25 63.788 512 63.788zm19.193 692.075c-9.032 7.903-19.193 12.42-31.612 12.42-12.419 0-22.58-4.517-31.612-12.42-9.032-9.032-12.419-19.193-12.419-31.612 0-12.419 3.387-22.58 12.42-30.483 9.031-9.032 19.192-12.418 31.611-12.418s23.709 3.386 32.176 12.418c7.903 7.903 12.42 18.064 12.42 30.483.564 12.984-3.952 23.145-12.984 31.612zm105.561-318.941c-7.338 9.032-27.096 27.66-59.272 56.45-16.37 14.112-27.096 27.095-34.435 40.079-9.596 16.37-14.112 33.87-14.112 53.627v16.935h-58.143v-16.935c0-24.273 4.516-45.16 12.983-63.788 10.161-22.015 34.434-49.676 73.95-84.675 11.854-11.854 20.321-20.322 24.837-26.531 14.677-18.064 22.016-37.257 22.016-57.579 0-29.354-9.032-51.934-24.838-68.304-16.935-17.5-41.209-25.403-71.691-25.403-36.693 0-63.789 11.855-81.288 36.128-16.37 20.322-24.274 48.547-24.274 84.11h-58.143c0-51.369 14.112-92.013 43.466-123.06 29.354-32.177 70.563-48.547 123.061-48.547 46.853 0 84.11 12.419 112.9 38.95 27.096 24.838 41.208 59.273 41.208 103.303-.564 32.177-9.596 60.966-28.225 85.24z"/></svg>