<svg class="icon" viewBox="0 0 1024 1024" xmlns="http://www.w3.org/2000/svg" width="200" height="200"><defs><style/></defs><path d="M507.814 127.998q-154.182 0-263.273 109.091Q135.45 346.18 135.45 500.362q0 154.182 109.091 263.273 109.091 109.091 263.273 109.091 154.182 0 263.273-109.091 109.091-109.091 109.091-263.273 0-154.182-109.091-263.273-109.091-109.091-263.273-109.091zm0 714.909q-69.818 0-133.091-26.909-63.273-27.636-109.091-73.455-45.818-45.818-73.455-109.091-26.909-63.273-26.909-133.091 0-69.818 26.909-133.091 27.636-63.273 73.455-109.091 45.818-45.818 109.091-73.455 63.273-26.909 133.091-26.909 69.818 0 133.091 26.909 63.273 27.636 109.091 73.455 45.818 45.818 73.455 109.091 26.909 63.273 26.909 133.091 0 69.818-26.909 133.091-27.636 63.273-73.455 109.091-45.818 45.818-109.091 73.455-63.273 26.909-133.091 26.909zm2.181-182.545q-13.091 0-21.818 8.727-8.727 9.455-8.727 22.545 0 13.091 8.727 21.818 8.727 8.727 21.818 8.727 13.091 0 22.545-8.727 8.727-8.727 8.727-21.818 0-13.091-8.727-22.545-9.455-8.727-22.545-8.727zm-2.181-381.819q-47.273 0-81.455 32.727-34.182 33.455-34.182 81.455 0 9.455 6.545 16 7.273 7.273 17.455 7.273 9.455 0 16-7.273 7.273-6.545 7.273-16 0-29.091 19.636-48.727 20.364-19.636 50.182-19.636 28.364 0 48.727 20.364 20.364 20.364 20.364 48.727 0 7.273-6.545 16.727-6.545 10.182-13.091 17.455-5.818 6.545-18.909 19.636-16.727 16.727-26.182 26.909-8.727 10.182-18.909 29.091-9.455 18.182-9.455 35.636v53.091q0 9.455 6.545 16.727 7.273 7.273 17.455 7.273 9.455 0 16-6.545 7.273-7.273 7.273-17.455v-53.091q0-8.727 6.545-20.364 7.273-10.909 13.818-18.182 7.273-8 20.364-21.091 16.727-16.727 25.455-26.182 8.727-9.455 16.727-26.182 8.727-17.455 8.727-33.455-.727-48-34.909-81.455t-81.455-33.455z"/></svg>