<svg class="icon" viewBox="0 0 1024 1024" xmlns="http://www.w3.org/2000/svg" width="200" height="200"><defs><style/></defs><path d="M566.197 881.676c-252.89 41.458-468.47-174.121-422.866-427.012 24.874-153.392 149.247-277.765 298.494-302.64 252.89-41.457 468.47 174.122 427.012 427.013-29.02 153.392-149.247 277.765-302.64 302.64m8.292-775.256C292.578 60.818 52.124 301.271 97.727 587.328c29.02 169.976 165.83 310.931 335.806 339.952 281.911 45.603 522.364-194.85 476.761-480.907-29.02-174.122-165.83-310.931-335.805-339.952"/><path d="M114.31 784.583c-8.291 0-12.437-4.146-16.583-8.292-49.749-78.769-74.623-165.83-74.623-261.182s24.874-182.413 74.623-261.182c8.292-8.291 20.73-12.437 29.02-8.291 12.438 4.145 12.438 20.728 8.292 29.02-45.603 70.478-70.478 153.393-70.478 240.453 0 82.915 24.875 165.83 66.332 236.308 8.292 8.292 4.146 24.874-8.291 29.02 0 4.146-4.146 4.146-8.292 4.146M889.565 790.47c-4.145 0-8.291 0-12.437-4.146-8.291-8.291-12.437-20.729-8.291-29.02 45.603-70.478 70.477-157.538 70.477-244.6 0-82.914-24.874-165.83-66.332-236.307-8.291-8.291-4.145-24.874 8.292-29.02 8.291-8.292 24.874-4.146 29.02 8.291 49.75 78.77 74.624 165.83 74.624 261.183s-29.02 186.558-78.77 265.327c-4.145 4.146-8.291 8.292-16.583 8.292M486.06 378.631h12.437c12.437 0 20.729 8.292 20.729 20.729v178.267c0 12.437-8.292 20.729-20.73 20.729H486.06c-12.438 0-20.729-8.292-20.729-20.729V399.36c0-12.437 8.291-20.729 20.729-20.729z"/><path d="M685.056 565.19v12.437c0 12.437-8.292 20.729-20.73 20.729H486.06c-12.438 0-20.729-8.292-20.729-20.729V565.19c0-12.437 8.291-20.729 20.729-20.729h178.267c12.437 0 20.729 8.292 20.729 20.729z"/></svg>